{
  "accessors": [
    {
      "bufferView": 2,
      "componentType": 5126,
      "count": 2745,
      "max": [
        -0.03002000041306019,
        0.2411939948797226,
        -0.03314200043678284
      ],
      "min": [
        -0.143886998295784,
        0.0009590000263415277,
        -0.1683180034160614
      ],
      "type": "VEC3"
    },
    {
      "bufferView": 2,
      "byteOffset": 32940,
      "componentType": 5126,
      "count": 2745,
      "max": [
        0.9998772740364075,
        0.9999696612358093,
        0.9998759627342224
      ],
      "min": [
        -0.9994730353355408,
        -0.9999374151229858,
        -0.999719500541687
      ],
      "type": "VEC3"
    },
    {
      "bufferView": 1,
      "componentType": 5126,
      "count": 2745,
      "max": [
        0.8061519861221313,
        0.9999690055847168
      ],
      "min": [
        3.099999958067201e-05,
        0.0
      ],
      "type": "VEC2"
    },
    {
      "bufferView": 0,
      "componentType": 5125,
      "count": 11670,
      "type": "SCALAR"
    },
    {
      "bufferView": 2,
      "byteOffset": 65880,
      "componentType": 5126,
      "count": 2745,
      "max": [
        0.143886998295784,
        0.2411939948797226,
        -0.03314200043678284
      ],
      "min": [
        0.03002000041306019,
        0.0009590000263415277,
        -0.1683180034160614
      ],
      "type": "VEC3"
    },
    {
      "bufferView": 2,
      "byteOffset": 98820,
      "componentType": 5126,
      "count": 2745,
      "max": [
        0.999472975730896,
        0.9999696612358093,
        0.9998759627342224
      ],
      "min": [
        -0.9998747706413269,
        -0.999937891960144,
        -0.9997194409370422
      ],
      "type": "VEC3"
    },
    {
      "bufferView": 1,
      "byteOffset": 21960,
      "componentType": 5126,
      "count": 2745,
      "max": [
        0.8061519861221313,
        0.9999690055847168
      ],
      "min": [
        3.099999958067201e-05,
        0.0
      ],
      "type": "VEC2"
    },
    {
      "bufferView": 0,
      "byteOffset": 46680,
      "componentType": 5125,
      "count": 11670,
      "type": "SCALAR"
    },
    {
      "bufferView": 2,
      "byteOffset": 131760,
      "componentType": 5126,
      "count": 3768,
      "max": [
        0.0945030003786087,
        0.31922000646591187,
        0.15069299936294556
      ],
      "min": [
        -0.0945030003786087,
        0.09616100043058395,
        -0.18338599801063538
      ],
      "type": "VEC3"
    },
    {
      "bufferView": 2,
      "byteOffset": 176976,
      "componentType": 5126,
      "count": 3768,
      "max": [
        0.9997535347938538,
        1.0,
        0.9996899962425232
      ],
      "min": [
        -0.9997535347938538,
        -0.9995036721229553,
        -1.0
      ],
      "type": "VEC3"
    },
    {
      "bufferView": 1,
      "byteOffset": 43920,
      "componentType": 5126,
      "count": 3768,
      "max": [
        0.8056640028953552,
        0.9085689783096313
      ],
      "min": [
        0.2734380066394806,
        0.0
      ],
      "type": "VEC2"
    },
    {
      "bufferView": 0,
      "byteOffset": 93360,
      "componentType": 5125,
      "count": 22008,
      "type": "SCALAR"
    },
    {
      "bufferView": 2,
      "byteOffset": 222192,
      "componentType": 5126,
      "count": 402,
      "max": [
        -0.008751999586820602,
        0.414465993642807,
        0.231331005692482
      ],
      "min": [
        -0.09710399806499481,
        0.3261139988899231,
        0.14433999359607697
      ],
      "type": "VEC3"
    },
    {
      "bufferView": 2,
      "byteOffset": 227016,
      "componentType": 5126,
      "count": 402,
      "max": [
        1.0,
        1.0,
        1.0
      ],
      "min": [
        -1.0,
        -1.0,
        -1.0
      ],
      "type": "VEC3"
    },
    {
      "bufferView": 1,
      "byteOffset": 74064,
      "componentType": 5126,
      "count": 402,
      "max": [
        0.7270510196685791,
        0.9877550005912781
      ],
      "min": [
        0.04177900031208992,
        0.8280029892921448
      ],
      "type": "VEC2"
    },
    {
      "bufferView": 0,
      "byteOffset": 181392,
      "componentType": 5125,
      "count": 2280,
      "type": "SCALAR"
    },
    {
      "bufferView": 2,
      "byteOffset": 231840,
      "componentType": 5126,
      "count": 2112,
      "max": [
        0.14407899975776672,
        0.26462098956108093,
        0.14774900674819946
      ],
      "min": [
        0.03581099957227707,
        0.002345999935641885,
        0.012405999936163425
      ],
      "type": "VEC3"
    },
    {
      "bufferView": 2,
      "byteOffset": 257184,
      "componentType": 5126,
      "count": 2112,
      "max": [
        0.9999378323554993,
        0.9997208118438721,
        0.999504029750824
      ],
      "min": [
        -0.9998751282691956,
        -0.9999375343322754,
        -0.9995038509368896
      ],
      "type": "VEC3"
    },
    {
      "bufferView": 1,
      "byteOffset": 77280,
      "componentType": 5126,
      "count": 2112,
      "max": [
        0.9980469942092896,
        0.8729249835014343
      ],
      "min": [
        0.06457500159740448,
        0.0
      ],
      "type": "VEC2"
    },
    {
      "bufferView": 0,
      "byteOffset": 190512,
      "componentType": 5125,
      "count": 10068,
      "type": "SCALAR"
    },
    {
      "bufferView": 2,
      "byteOffset": 282528,
      "componentType": 5126,
      "count": 4342,
      "max": [
        0.16461700201034546,
        0.5813019871711731,
        0.27859699726104736
      ],
      "min": [
        -0.16461700201034546,
        0.25818300247192383,
        0.009603000245988369
      ],
      "type": "VEC3"
    },
    {
      "bufferView": 2,
      "byteOffset": 334632,
      "componentType": 5126,
      "count": 4342,
      "max": [
        0.9973751902580261,
        0.9999697208404541,
        0.999968945980072
      ],
      "min": [
        -0.9973751306533813,
        -1.0,
        -0.9988856315612793
      ],
      "type": "VEC3"
    },
    {
      "bufferView": 1,
      "byteOffset": 94176,
      "componentType": 5126,
      "count": 4342,
      "max": [
        0.9975590109825134,
        0.9949229955673218
      ],
      "min": [
        3.099999958067201e-05,
        0.0
      ],
      "type": "VEC2"
    },
    {
      "bufferView": 0,
      "byteOffset": 230784,
      "componentType": 5125,
      "count": 23148,
      "type": "SCALAR"
    },
    {
      "bufferView": 2,
      "byteOffset": 386736,
      "componentType": 5126,
      "count": 688,
      "max": [
        0.12885800004005432,
        0.34714698791503906,
        0.01547200046479702
      ],
      "min": [
        -0.12885800004005432,
        0.26782500743865967,
        -0.06870699673891068
      ],
      "type": "VEC3"
    },
    {
      "bufferView": 2,
      "byteOffset": 394992,
      "componentType": 5126,
      "count": 688,
      "max": [
        0.9515240788459778,
        0.9938868880271912,
        0.9604957103729248
      ],
      "min": [
        -0.951524019241333,
        -0.9933856725692749,
        -0.9149654507637024
      ],
      "type": "VEC3"
    },
    {
      "bufferView": 1,
      "byteOffset": 128912,
      "componentType": 5126,
      "count": 688,
      "max": [
        0.9868159890174866,
        0.9620969891548157
      ],
      "min": [
        3.099999958067201e-05,
        0.3291020095348358
      ],
      "type": "VEC2"
    },
    {
      "bufferView": 0,
      "byteOffset": 323376,
      "componentType": 5125,
      "count": 3768,
      "type": "SCALAR"
    },
    {
      "bufferView": 2,
      "byteOffset": 403248,
      "componentType": 5126,
      "count": 2112,
      "max": [
        -0.03581099957227707,
        0.26462098956108093,
        0.14774900674819946
      ],
      "min": [
        -0.14407899975776672,
        0.002345999935641885,
        0.012405999936163425
      ],
      "type": "VEC3"
    },
    {
      "bufferView": 2,
      "byteOffset": 428592,
      "componentType": 5126,
      "count": 2112,
      "max": [
        0.9997091293334961,
        0.9996693730354309,
        0.9994665384292603
      ],
      "min": [
        -0.9962010383605957,
        -0.9999508857727051,
        -0.999946117401123
      ],
      "type": "VEC3"
    },
    {
      "bufferView": 1,
      "byteOffset": 134416,
      "componentType": 5126,
      "count": 2112,
      "max": [
        0.9980469942092896,
        0.8729249835014343
      ],
      "min": [
        0.06457500159740448,
        0.0
      ],
      "type": "VEC2"
    },
    {
      "bufferView": 0,
      "byteOffset": 338448,
      "componentType": 5125,
      "count": 10068,
      "type": "SCALAR"
    },
    {
      "bufferView": 2,
      "byteOffset": 453936,
      "componentType": 5126,
      "count": 402,
      "max": [
        -0.008751999586820602,
        0.414465993642807,
        0.231331005692482
      ],
      "min": [
        -0.09710399806499481,
        0.3261139988899231,
        0.14433999359607697
      ],
      "type": "VEC3"
    },
    {
      "bufferView": 2,
      "byteOffset": 458760,
      "componentType": 5126,
      "count": 402,
      "max": [
        1.0,
        1.0,
        1.0
      ],
      "min": [
        -1.0,
        -1.0,
        -1.0
      ],
      "type": "VEC3"
    },
    {
      "bufferView": 1,
      "byteOffset": 151312,
      "componentType": 5126,
      "count": 402,
      "max": [
        0.7270510196685791,
        0.9877550005912781
      ],
      "min": [
        0.04177900031208992,
        0.8280029892921448
      ],
      "type": "VEC2"
    },
    {
      "bufferView": 0,
      "byteOffset": 378720,
      "componentType": 5125,
      "count": 2280,
      "type": "SCALAR"
    },
    {
      "bufferView": 2,
      "byteOffset": 463584,
      "componentType": 5126,
      "count": 402,
      "max": [
        0.09710399806499481,
        0.414465993642807,
        0.231331005692482
      ],
      "min": [
        0.008751999586820602,
        0.3261139988899231,
        0.14433999359607697
      ],
      "type": "VEC3"
    },
    {
      "bufferView": 2,
      "byteOffset": 468408,
      "componentType": 5126,
      "count": 402,
      "max": [
        1.0,
        1.0,
        1.0
      ],
      "min": [
        -1.0,
        -1.0,
        -1.0
      ],
      "type": "VEC3"
    },
    {
      "bufferView": 1,
      "byteOffset": 154528,
      "componentType": 5126,
      "count": 402,
      "max": [
        0.7270510196685791,
        0.9877550005912781
      ],
      "min": [
        0.04177900031208992,
        0.8280029892921448
      ],
      "type": "VEC2"
    },
    {
      "bufferView": 0,
      "byteOffset": 387840,
      "componentType": 5125,
      "count": 2280,
      "type": "SCALAR"
    }
  ],
  "asset": {
    "extras": {
      "author": "😸 New cat Heracles 😺 and 🌙 new LunaMoonPink 🌹 (https://sketchfab.com/Cat_heracles)",
      "license": "CC-BY-4.0 (http://creativecommons.org/licenses/by/4.0/)",
      "source": "https://sketchfab.com/3d-models/cat-bee-a072d8833d76443e9cd74e5eaaa0e4a2",
      "title": "cat bee"
    },
    "generator": "Sketchfab-16.62.0",
    "version": "2.0"
  },
  "bufferViews": [
    {
      "buffer": 0,
      "byteLength": 396960,
      "name": "floatBufferViews",
      "target": 34963
    },
    {
      "buffer": 0,
      "byteLength": 157744,
      "byteOffset": 396960,
      "byteStride": 8,
      "name": "floatBufferViews",
      "target": 34962
    },
    {
      "buffer": 0,
      "byteLength": 473232,
      "byteOffset": 554704,
      "byteStride": 12,
      "name": "floatBufferViews",
      "target": 34962
    }
  ],
  "buffers": [
    {
      "byteLength": 1027936,
      "uri": "scene.bin"
    }
  ],
  "images": [
    {
      "uri": "textures/catbee_toy_MAT.008_baseColor.png"
    },
    {
      "uri": "textures/None_baseColor.png"
    }
  ],
  "materials": [
    {
      "doubleSided": true,
      "name": "catbee_toy_MAT.008",
      "pbrMetallicRoughness": {
        "baseColorTexture": {
          "index": 0
        },
        "metallicFactor": 0.0,
        "roughnessFactor": 0.8211145618000169
      }
    },
    {
      "doubleSided": true,
      "name": "None",
      "pbrMetallicRoughness": {
        "baseColorTexture": {
          "index": 1
        },
        "metallicFactor": 0.0,
        "roughnessFactor": 0.7815902873013539
      }
    }
  ],
  "meshes": [
    {
      "name": "catbee_toy_catbee_back_leg_low_catbee_toy_catbee_back_leg_low.0_catbee_toy_MAT.008_0",
      "primitives": [
        {
          "attributes": {
            "NORMAL": 1,
            "POSITION": 0,
            "TEXCOORD_0": 2
          },
          "indices": 3,
          "material": 0,
          "mode": 4
        }
      ]
    },
    {
      "name": "catbee_toy_catbee_back_leg_low1_catbee_toy_catbee_back_leg_low1_catbee_toy_MAT.008_0",
      "primitives": [
        {
          "attributes": {
            "NORMAL": 5,
            "POSITION": 4,
            "TEXCOORD_0": 6
          },
          "indices": 7,
          "material": 0,
          "mode": 4
        }
      ]
    },
    {
      "name": "catbee_toy_catbee_body_low_catbee_toy_catbee_body_low.001_catbee_toy_MAT.008_0",
      "primitives": [
        {
          "attributes": {
            "NORMAL": 9,
            "POSITION": 8,
            "TEXCOORD_0": 10
          },
          "indices": 11,
          "material": 0,
          "mode": 4
        }
      ]
    },
    {
      "name": "catbee_toy_catbee_eyes_low_catbee_toy_catbee_eyes_low.003_None_0",
      "primitives": [
        {
          "attributes": {
            "NORMAL": 13,
            "POSITION": 12,
            "TEXCOORD_0": 14
          },
          "indices": 15,
          "material": 1,
          "mode": 4
        }
      ]
    },
    {
      "name": "catbee_toy_catbee_front_leg_low1_catbee_toy_catbee_front_leg_lo_catbee_toy_MAT.008_0",
      "primitives": [
        {
          "attributes": {
            "NORMAL": 17,
            "POSITION": 16,
            "TEXCOORD_0": 18
          },
          "indices": 19,
          "material": 0,
          "mode": 4
        }
      ]
    },
    {
      "name": "catbee_toy_catbee_head_low_catbee_toy_catbee_head_low.001_catbee_toy_MAT.008_0",
      "primitives": [
        {
          "attributes": {
            "NORMAL": 21,
            "POSITION": 20,
            "TEXCOORD_0": 22
          },
          "indices": 23,
          "material": 0,
          "mode": 4
        }
      ]
    },
    {
      "name": "catbee_toy_catbee_wings_low_catbee_toy_catbee_wings_low.001_catbee_toy_MAT.008_0",
      "primitives": [
        {
          "attributes": {
            "NORMAL": 25,
            "POSITION": 24,
            "TEXCOORD_0": 26
          },
          "indices": 27,
          "material": 0,
          "mode": 4
        }
      ]
    },
    {
      "name": "catbee_toy_catbee_front_leg_low1.001_catbee_toy_catbee_front_le_catbee_toy_MAT.008_0",
      "primitives": [
        {
          "attributes": {
            "NORMAL": 29,
            "POSITION": 28,
            "TEXCOORD_0": 30
          },
          "indices": 31,
          "material": 0,
          "mode": 4
        }
      ]
    },
    {
      "name": "catbee_toy_catbee_eyes_low.001_catbee_toy_catbee_eyes_low.004_catbee_toy_MAT.008_0",
      "primitives": [
        {
          "attributes": {
            "NORMAL": 33,
            "POSITION": 32,
            "TEXCOORD_0": 34
          },
          "indices": 35,
          "material": 0,
          "mode": 4
        }
      ]
    },
    {
      "name": "catbee_toy_catbee_eyes_low.002_catbee_toy_catbee_eyes_low.005_catbee_toy_MAT.008_0",
      "primitives": [
        {
          "attributes": {
            "NORMAL": 37,
            "POSITION": 36,
            "TEXCOORD_0": 38
          },
          "indices": 39,
          "material": 0,
          "mode": 4
        }
      ]
    }
  ],
  "nodes": [
    {
      "children": [
        1
      ],
      "matrix": [
        1.0,
        0.0,
        0.0,
        0.0,
        0.0,
        2.220446049250313e-16,
        -1.0,
        0.0,
        0.0,
        1.0,
        2.220446049250313e-16,
        0.0,
        0.0,
        0.0,
        0.0,
        1.0
      ],
      "name": "Sketchfab_model"
    },
    {
      "children": [
        2
      ],
      "matrix": [
        0.009999999776482582,
        0.0,
        0.0,
        0.0,
        0.0,
        0.0,
        0.009999999776482582,
        0.0,
        0.0,
        -0.009999999776482582,
        0.0,
        0.0,
        0.0,
        0.0,
        0.0,
        1.0
      ],
      "name": "Catbee.fbx"
    },
    {
      "children": [
        3,
        5,
        7,
        9,
        11,
        13,
        15,
        17,
        19,
        21
      ],
      "name": "RootNode"
    },
    {
      "children": [
        4
      ],
      "matrix": [
        100.0,
        0.0,
        0.0,
        0.0,
        0.0,
        99.99999999999866,
        1.6292067073209114e-05,
        0.0,
        0.0,
        -1.6292067073209114e-05,
        99.99999999999866,
        0.0,
        0.0,
        0.0,
        0.0,
        1.0
      ],
      "name": "catbee_toy_catbee_back_leg_low_catbee_toy_catbee_back_leg_low.0"
    },
    {
      "mesh": 0,
      "name": "catbee_toy_catbee_back_leg_low_catbee_toy_catbee_back_leg_low.0_catbee_toy_MAT.008_0"
    },
    {
      "children": [
        6
      ],
      "matrix": [
        100.0,
        0.0,
        0.0,
        0.0,
        0.0,
        99.99999999999866,
        1.6292067073209114e-05,
        0.0,
        0.0,
        -1.6292067073209114e-05,
        99.99999999999866,
        0.0,
        0.0,
        0.0,
        0.0,
        1.0
      ],
      "name": "catbee_toy_catbee_back_leg_low1_catbee_toy_catbee_back_leg_low1"
    },
    {
      "mesh": 1,
      "name": "catbee_toy_catbee_back_leg_low1_catbee_toy_catbee_back_leg_low1_catbee_toy_MAT.008_0"
    },
    {
      "children": [
        8
      ],
      "matrix": [
        100.0,
        0.0,
        0.0,
        0.0,
        0.0,
        99.99999999999866,
        1.6292067073209114e-05,
        0.0,
        0.0,
        -1.6292067073209114e-05,
        99.99999999999866,
        0.0,
        0.0,
        0.0,
        0.0,
        1.0
      ],
      "name": "catbee_toy_catbee_body_low_catbee_toy_catbee_body_low.001"
    },
    {
      "mesh": 2,
      "name": "catbee_toy_catbee_body_low_catbee_toy_catbee_body_low.001_catbee_toy_MAT.008_0"
    },
    {
      "children": [
        10
      ],
      "matrix": [
        100.0,
        0.0,
        0.0,
        0.0,
        0.0,
        99.99999999999866,
        1.6292067073209114e-05,
        0.0,
        0.0,
        -1.6292067073209114e-05,
        99.99999999999866,
        0.0,
        0.0,
        0.0,
        0.0,
        1.0
      ],
      "name": "catbee_toy_catbee_eyes_low_catbee_toy_catbee_eyes_low.003"
    },
    {
      "mesh": 3,
      "name": "catbee_toy_catbee_eyes_low_catbee_toy_catbee_eyes_low.003_None_0"
    },
    {
      "children": [
        12
      ],
      "matrix": [
        100.0,
        0.0,
        0.0,
        0.0,
        0.0,
        99.99999999999866,
        1.6292067073209114e-05,
        0.0,
        0.0,
        -1.6292067073209114e-05,
        99.99999999999866,
        0.0,
        0.0,
        0.0,
        0.0,
        1.0
      ],
      "name": "catbee_toy_catbee_front_leg_low1_catbee_toy_catbee_front_leg_lo"
    },
    {
      "mesh": 4,
      "name": "catbee_toy_catbee_front_leg_low1_catbee_toy_catbee_front_leg_lo_catbee_toy_MAT.008_0"
    },
    {
      "children": [
        14
      ],
      "matrix": [
        100.0,
        0.0,
        0.0,
        0.0,
        0.0,
        99.99999999999866,
        1.6292067073209114e-05,
        0.0,
        0.0,
        -1.6292067073209114e-05,
        99.99999999999866,
        0.0,
        0.0,
        0.0,
        0.0,
        1.0
      ],
      "name": "catbee_toy_catbee_head_low_catbee_toy_catbee_head_low.001"
    },
    {
      "mesh": 5,
      "name": "catbee_toy_catbee_head_low_catbee_toy_catbee_head_low.001_catbee_toy_MAT.008_0"
    },
    {
      "children": [
        16
      ],
      "matrix": [
        100.0,
        0.0,
        0.0,
        0.0,
        0.0,
        99.99999999999866,
        1.6292067073209114e-05,
        0.0,
        0.0,
        -1.6292067073209114e-05,
        99.99999999999866,
        0.0,
        0.0,
        0.0,
        0.0,
        1.0
      ],
      "name": "catbee_toy_catbee_wings_low_catbee_toy_catbee_wings_low.001"
    },
    {
      "mesh": 6,
      "name": "catbee_toy_catbee_wings_low_catbee_toy_catbee_wings_low.001_catbee_toy_MAT.008_0"
    },
    {
      "children": [
        18
      ],
      "matrix": [
        100.0,
        0.0,
        0.0,
        0.0,
        0.0,
        99.99999999999866,
        1.6292067073209114e-05,
        0.0,
        0.0,
        -1.6292067073209114e-05,
        99.99999999999866,
        0.0,
        0.0,
        0.0,
        0.0,
        1.0
      ],
      "name": "catbee_toy_catbee_front_leg_low1.001_catbee_toy_catbee_front_le"
    },
    {
      "mesh": 7,
      "name": "catbee_toy_catbee_front_leg_low1.001_catbee_toy_catbee_front_le_catbee_toy_MAT.008_0"
    },
    {
      "children": [
        20
      ],
      "matrix": [
        100.0,
        0.0,
        0.0,
        0.0,
        0.0,
        99.99999999999866,
        1.6292067073209114e-05,
        0.0,
        0.0,
        -1.6292067073209114e-05,
        99.99999999999866,
        0.0,
        0.0,
        0.0,
        0.0,
        1.0
      ],
      "name": "catbee_toy_catbee_eyes_low.001_catbee_toy_catbee_eyes_low.004"
    },
    {
      "mesh": 8,
      "name": "catbee_toy_catbee_eyes_low.001_catbee_toy_catbee_eyes_low.004_catbee_toy_MAT.008_0"
    },
    {
      "children": [
        22
      ],
      "matrix": [
        100.0,
        0.0,
        0.0,
        0.0,
        0.0,
        99.99999999999866,
        1.6292067073209114e-05,
        0.0,
        0.0,
        -1.6292067073209114e-05,
        99.99999999999866,
        0.0,
        0.0,
        0.0,
        0.0,
        1.0
      ],
      "name": "catbee_toy_catbee_eyes_low.002_catbee_toy_catbee_eyes_low.005"
    },
    {
      "mesh": 9,
      "name": "catbee_toy_catbee_eyes_low.002_catbee_toy_catbee_eyes_low.005_catbee_toy_MAT.008_0"
    }
  ],
  "samplers": [
    {
      "magFilter": 9729,
      "minFilter": 9987,
      "wrapS": 10497,
      "wrapT": 10497
    }
  ],
  "scene": 0,
  "scenes": [
    {
      "name": "Sketchfab_Scene",
      "nodes": [
        0
      ]
    }
  ],
  "textures": [
    {
      "sampler": 0,
      "source": 0
    },
    {
      "sampler": 0,
      "source": 1
    }
  ]
}
